# xmcd
#
# Track frame offsets:
#	150
#	11240
#	21825
#	31338
#	47480
#	58414
#	67381
#	79569
#	90804
#	102211
#	115325
#	126207
#
# Disc length: 1863
#
# Revision: 3
# Processed by: cddbd v1.5.1PL0 Copyright (c) Steve Scherf et al.
# Submitted via: Audio-CD-Archiv 2.10.438
# Normalized: r1:DSETVAR1,TDELIM( - );r2:TSWAP
#
DISCID=9b07450c
DTITLE=Various Artist - Country Music Cavalcade CD3
DYEAR=1900
DGENRE=country
TTITLE0=Dale And Grace - I'm Leaving It All To You
TTITLE1=Rusell Arms - Cinco Robles
TTITLE2=Memphis Blue - Times Square
TTITLE3=Vicki Lawren - The Night The Lights Went Out In Georgia
TTITLE4=Booby Vee - Devil Or Angel
TTITLE5=Jimmy Gilmer - Sugar Shack
TTITLE6=Billy Joe Royal - Down In The Boondocks
TTITLE7=sandy Posey - I Take It back
TTITLE8=Wilma Lee And Stooney Cooper - Keep On The Sunny Side
TTITLE9=Jimmy Clanton - Letter To An Angel
TTITLE10=Memphis Blue - Night Shift
TTITLE11=Billy Walker - Cross The Brazos At waco
EXTD=
EXTT0=
EXTT1=
EXTT2=
EXTT3=
EXTT4=
EXTT5=
EXTT6=
EXTT7=
EXTT8=
EXTT9=
EXTT10=
EXTT11=
PLAYORDER=
